<?xml version="1.0" encoding="UTF-8"?>
<svg version="1.1" xmlns="http://www.w3.org/2000/svg" width="705" height="697">
<path d="M0 0 C0.55945313 0.45262207 1.11890625 0.90524414 1.6953125 1.37158203 C19.58633708 15.8879823 19.58633708 15.8879823 21 23 C21.08406811 24.55711074 21.11780938 26.1173852 21.11352539 27.67675781 C21.11344986 28.59741028 21.11337433 29.51806274 21.11329651 30.46661377 C21.10813522 31.45216248 21.10297394 32.43771118 21.09765625 33.453125 C21.0962413 34.46848328 21.09482635 35.48384155 21.09336853 36.52996826 C21.08777516 39.77000892 21.07522385 43.00998025 21.0625 46.25 C21.05748414 48.44791567 21.05292139 50.64583242 21.04882812 52.84375 C21.0378079 58.22919029 21.02107633 63.61459019 21 69 C19.68 69 18.36 69 17 69 C16.52433594 67.92685547 16.52433594 67.92685547 16.0390625 66.83203125 C5.22967557 43.75010833 -14.94611433 27.57643992 -36.21606445 14.35253906 C-36.92737015 13.90976624 -37.63867584 13.46699341 -38.37153625 13.01080322 C-38.90892929 12.67723816 -39.44632233 12.3436731 -40 12 C-40.1169085 35.03554829 -40.20502508 58.07104752 -40.25906086 81.1068325 C-40.28481981 91.80325627 -40.31992627 102.49949549 -40.37719727 113.19580078 C-40.42710283 122.52095148 -40.45930779 131.84596849 -40.47044247 141.17124903 C-40.4769491 146.10694281 -40.49219342 151.04225419 -40.52865028 155.97782516 C-40.56272279 160.62851387 -40.57303031 165.27866458 -40.56553841 169.92946625 C-40.56690794 171.63138126 -40.57677327 173.33331527 -40.59602737 175.03512192 C-40.7497541 188.2778184 -40.7497541 188.2778184 -35 200 C-34.01 200.66 -33.02 201.32 -32 202 C-32 202.99 -32 203.98 -32 205 C-49.82 205 -67.64 205 -86 205 C-86 203.68 -86 202.36 -86 201 C-84.66666667 199.66666667 -83.33333333 198.33333333 -82 197 C-78.14281181 189.57134127 -77.85312148 182.11135121 -77.84178162 173.90075684 C-77.83437465 172.73894197 -77.83437465 172.73894197 -77.82681805 171.5536561 C-77.8115644 168.98043418 -77.80311566 166.40723696 -77.79467773 163.83398438 C-77.78508965 161.98060899 -77.77507903 160.12723575 -77.76467896 158.27386475 C-77.73772464 153.25798329 -77.71666398 148.24209253 -77.69667697 143.22617912 C-77.67475876 137.97844637 -77.6473987 132.73074203 -77.62062073 127.48303223 C-77.57077257 117.55267699 -77.52580461 107.62230592 -77.48259836 97.6919198 C-77.43315855 86.38358725 -77.37826549 75.07528321 -77.32291877 63.76697826 C-77.20921969 40.51134547 -77.1023545 17.2556853 -77 -6 C-77.60146851 -6.19825378 -78.20293701 -6.39650757 -78.82263184 -6.60076904 C-80.01934509 -6.99706512 -80.01934509 -6.99706512 -81.24023438 -7.40136719 C-82.02732788 -7.66149597 -82.81442139 -7.92162476 -83.62536621 -8.18963623 C-85.82307971 -8.93962446 -87.99081945 -9.74011334 -90.15625 -10.578125 C-170.67085097 -41.70734363 -262.06712788 -38.86244899 -340.9375 -4.125 C-347.1624072 -1.35996245 -353.09869217 1.60701314 -359 5 C-359.11413235 37.18784864 -359.20258408 69.37563957 -359.25532665 101.56364336 C-359.26157997 105.36615971 -359.2680516 109.16867566 -359.2746582 112.97119141 C-359.27596976 113.72818445 -359.27728131 114.4851775 -359.2786326 115.26510973 C-359.30037245 127.51248419 -359.33978609 139.75974096 -359.38576398 152.00704567 C-359.43256828 164.57960458 -359.46030378 177.15210198 -359.47044247 189.72474444 C-359.47729344 197.47900043 -359.4989091 205.23292375 -359.53958233 212.98707731 C-359.5692069 218.93906831 -359.5722641 224.89088977 -359.56553841 230.84295654 C-359.56691216 233.2801887 -359.57683395 235.71743364 -359.59602737 238.15459061 C-359.62099088 241.48839676 -359.61489186 244.82079217 -359.60127258 248.15463257 C-359.61583679 249.11380502 -359.630401 250.07297747 -359.64540654 251.06121576 C-359.57011554 257.90336391 -357.88264255 263.30921347 -354 269 C-353.01 269.66 -352.02 270.32 -351 271 C-351 271.99 -351 272.98 -351 274 C-369.81 274 -388.62 274 -408 274 C-408 272.68 -408 271.36 -408 270 C-406.66666667 268.66666667 -405.33333333 267.33333333 -404 266 C-399.95372963 258.207183 -399.84948891 250.33057798 -399.87974548 241.76184082 C-399.87889106 240.86479101 -399.87803663 239.96774119 -399.87715632 239.04350805 C-399.87551707 236.05567737 -399.8809973 233.06790358 -399.88647461 230.08007812 C-399.88675684 227.93114218 -399.88659804 225.78220615 -399.8860321 223.63327026 C-399.88574554 217.81160714 -399.89161951 211.98996468 -399.89860606 206.16830635 C-399.90486305 200.07977529 -399.90544526 193.99124374 -399.90663147 187.90270996 C-399.90973786 176.37861606 -399.91794194 164.85453167 -399.92798096 153.33044195 C-399.93916356 140.20837918 -399.94465796 127.08631596 -399.94967639 113.96424961 C-399.96012512 86.97616114 -399.97771118 59.9880811 -400 33 C-402.22636024 34.8953091 -404.45093721 36.79264652 -406.67456055 38.69116211 C-407.61071827 39.48757236 -407.61071827 39.48757236 -408.56578827 40.30007172 C-413.87324186 44.83601413 -418.90600596 49.594642 -423.8125 54.5625 C-424.62871826 55.38621094 -425.44493652 56.20992188 -426.28588867 57.05859375 C-431.91906255 62.7929556 -437.17924088 68.55817575 -442 75 C-442.50273437 75.65339355 -443.00546875 76.30678711 -443.5234375 76.97998047 C-452.62309463 88.80796221 -460.62144636 101.03434732 -468 114 C-468.55977539 114.96486328 -468.55977539 114.96486328 -469.13085938 115.94921875 C-492.35709994 156.12669305 -504.85508143 205.55223493 -505.3125 251.8125 C-505.34150391 252.80958984 -505.37050781 253.80667969 -505.40039062 254.83398438 C-505.45282411 260.8961021 -505.09568698 264.41725835 -501 269 C-500.01 269.66 -499.02 270.32 -498 271 C-498 271.99 -498 272.98 -498 274 C-504.6752034 274.02526945 -511.35039457 274.04283268 -518.02563477 274.05493164 C-520.29842591 274.05997325 -522.5712138 274.06680637 -524.84399414 274.07543945 C-528.10303551 274.08751261 -531.36203417 274.09322987 -534.62109375 274.09765625 C-535.64400009 274.10281754 -536.66690643 274.10797882 -537.72080994 274.11329651 C-538.66170975 274.11337204 -539.60260956 274.11344757 -540.57202148 274.11352539 C-541.40475082 274.115746 -542.23748016 274.11796661 -543.09544373 274.12025452 C-545 274 -545 274 -546 273 C-549.79614355 220.22738145 -533.00139973 160.07494066 -510 113 C-509.20169923 111.3255798 -508.40352527 109.65109913 -507.60546875 107.9765625 C-493.48808668 78.72042186 -474.52805144 52.36190899 -452 29 C-451.43635742 28.41444336 -450.87271484 27.82888672 -450.29199219 27.22558594 C-442.91958809 19.60892771 -435.40484736 12.48528867 -427 6 C-425.68871042 4.97147102 -424.37751972 3.94281597 -423.06640625 2.9140625 C-408.44038998 -8.48932912 -393.39291017 -18.32118555 -377 -27 C-376.33387695 -27.35304199 -375.66775391 -27.70608398 -374.98144531 -28.06982422 C-289.92693582 -72.73520138 -185.73517294 -78.57958586 0 0 Z " fill="#FFFFFF" transform="translate(557,76)"/>
<path d="M0 0 C1.24716797 1.10601562 1.24716797 1.10601562 2.51953125 2.234375 C3.56560547 3.15476562 3.56560547 3.15476562 4.6328125 4.09375 C30.77398699 28.61092367 39.25262664 66.7304438 40.44726562 101.18261719 C41.27782199 139.62390839 32.84572183 179.5680725 5.89599609 208.37768555 C-10.44569557 225.14864711 -33.3750709 235.80319659 -56.88671875 236.4375 C-83.89202377 236.78474266 -107.94685995 230.75550147 -128.48046875 212.234375 C-129.25003906 211.54730469 -130.01960938 210.86023438 -130.8125 210.15234375 C-145.75870279 196.04375652 -155.1897585 177.21615883 -160.91796875 157.671875 C-161.1406543 156.91962646 -161.36333984 156.16737793 -161.59277344 155.39233398 C-165.66052906 140.31374681 -166.98681076 124.86891693 -166.87158203 109.30712891 C-166.85546742 106.73416193 -166.87157356 104.16276466 -166.890625 101.58984375 C-166.9110262 86.10046068 -165.2943782 70.56614533 -160.85546875 55.671875 C-160.60385986 54.81529297 -160.35225098 53.95871094 -160.09301758 53.07617188 C-151.57403784 25.44595102 -134.16540611 0.96293032 -108.390625 -12.875 C-73.32095871 -30.55839528 -29.74458345 -25.36161908 0 0 Z M-103.828125 33.8203125 C-117.79203906 51.30514486 -124.55176261 74.14583486 -124.68359375 96.37890625 C-124.68929382 97.14756516 -124.6949939 97.91622406 -124.7008667 98.70817566 C-124.71026929 100.33269906 -124.7168317 101.95724112 -124.72070312 103.58178711 C-124.73029159 106.00215613 -124.76130996 108.42163077 -124.79296875 110.84179688 C-124.88967635 124.95139068 -123.51964364 139.08937502 -118.79296875 152.484375 C-118.53805664 153.22051025 -118.28314453 153.95664551 -118.02050781 154.71508789 C-112.09450058 171.08240835 -102.16058136 185.03693721 -86.48046875 193.234375 C-73.29162877 199.37789448 -59.23179474 200.36986274 -45.4375 195.48828125 C-28.19608989 188.17719453 -17.32589444 174.80309824 -10.16796875 157.921875 C2.61852383 124.53012241 1.71785589 84.54867348 -11.97265625 51.6484375 C-19.06715276 36.2713709 -29.56819201 24.91878838 -45.16015625 18.0546875 C-47.25962252 17.31245195 -49.3094712 16.72137026 -51.48046875 16.234375 C-52.40859375 16.0075 -53.33671875 15.780625 -54.29296875 15.546875 C-73.6039903 13.65363759 -90.62947039 19.28202739 -103.828125 33.8203125 Z " fill="#FFFFFF" transform="translate(329.48046875,445.765625)"/>
<path d="M0 0 C19.14 0 38.28 0 58 0 C56.02 2.31 54.04 4.62 52 7 C48.11494091 12.76060486 47.85466196 17.50405791 47.87974548 24.33953857 C47.87846385 25.61260813 47.87846385 25.61260813 47.87715632 26.91139627 C47.87550719 29.75963711 47.88101365 32.60781926 47.88647461 35.45605469 C47.88675663 37.49602761 47.88659846 39.53600064 47.8860321 41.57597351 C47.88574471 47.11895716 47.89163216 52.66191925 47.89860606 58.20489788 C47.90484917 63.99583007 47.90544416 69.78676272 47.90663147 75.57769775 C47.90974195 86.54589439 47.91795155 97.51408109 47.92798096 108.48227334 C47.93915085 120.96822153 47.94465476 133.45417019 47.94967639 145.94012213 C47.96013438 171.6267536 47.97772838 197.31337624 48 223 C52.00545163 221.89372847 56.00931932 220.78182515 60.01293945 219.66894531 C61.14002571 219.35772736 62.26711197 219.0465094 63.42835236 218.7258606 C71.5408487 216.46671488 79.38303086 213.92787491 87.1875 210.75 C88.34838135 210.28384277 89.5092627 209.81768555 90.70532227 209.33740234 C118.72555995 197.8895126 144.72196698 182.36340885 168 163 C168.5043457 162.58588867 169.00869141 162.17177734 169.52832031 161.74511719 C183.25965911 150.4403314 196.15031839 138.12894634 207 124 C208.01332841 122.72577099 209.02773393 121.45239811 210.04296875 120.1796875 C217.88364214 110.25591749 224.72377713 99.97549312 231 89 C231.40202637 88.30438965 231.80405273 87.6087793 232.21826172 86.89208984 C243.32052063 67.50319644 260.00629131 34.29287502 253.875 11.25 C252.54626407 7.69280111 250.89987874 5.49989546 248 3 C248 2.01 248 1.02 248 0 C254.79928419 -0.0505894 261.5985201 -0.08568667 268.39794922 -0.10986328 C270.71242079 -0.11993892 273.02687959 -0.13359975 275.34130859 -0.15087891 C278.66246693 -0.17505865 281.9834574 -0.1864673 285.3046875 -0.1953125 C286.34430634 -0.20563507 287.38392517 -0.21595764 288.45504761 -0.22659302 C289.41589264 -0.22674408 290.37673767 -0.22689514 291.36669922 -0.22705078 C292.63910965 -0.23371262 292.63910965 -0.23371262 293.93722534 -0.24050903 C296 0 296 0 298 2 C301.56494752 53.37180788 264.66395319 113.86586221 233 151 C221.08134571 164.61580895 208.39610231 178.00029716 194 189 C192.71536643 190.01203228 191.4315783 191.02513823 190.1484375 192.0390625 C139.24055141 231.97134088 68.10986755 263.00156954 2.375 262.0625 C1.53710938 262.05347656 0.69921875 262.04445313 -0.1640625 262.03515625 C-1.07285156 262.01775391 -1.07285156 262.01775391 -2 262 C-2 260.68 -2 259.36 -2 258 C-0.66666667 256.66666667 0.66666667 255.33333333 2 254 C9.79889765 241.6135155 8.29050424 225.50544562 8.25878906 211.3996582 C8.26150441 209.3563525 8.26506838 207.31304777 8.26940918 205.26974487 C8.27846905 199.75965574 8.27501598 194.24964211 8.26865101 188.73955178 C8.26355975 182.95382257 8.26829092 177.16809948 8.27142334 171.38237 C8.27505304 161.67278898 8.27028918 151.96323848 8.26074219 142.25366211 C8.24985037 131.04732552 8.25339254 119.84106167 8.264395 108.63472682 C8.27348532 98.98763703 8.27474489 89.34056907 8.26951766 79.69347638 C8.26640874 73.94266041 8.26595909 68.19187858 8.27259064 62.44106483 C8.27838922 57.03600169 8.27432135 51.63103196 8.26280212 46.22597885 C8.26016935 44.24875607 8.26089685 42.27152537 8.26532745 40.2943058 C9.02752094 22.08954903 9.02752094 22.08954903 2 6 C1.34 5.34 0.68 4.68 0 4 C0 2.68 0 1.36 0 0 Z " fill="#FFFFFF" transform="translate(385,426)"/>
<path d="M0 0 C9.59008293 7.56948199 15.29777359 17.68281657 16.8125 29.81640625 C18.18397495 53.10290806 8.50257058 73.53863466 -6.60888672 90.84228516 C-8.75718809 93.20309044 -10.92943073 95.53538229 -13.15283203 97.82568359 C-15.46280378 100.21970989 -16.93239531 101.79718593 -18 105 C-16.79184819 108.03689312 -16.79184819 108.03689312 -14.94921875 111.40625 C-14.61982803 112.03854019 -14.29043732 112.67083038 -13.95106506 113.32228088 C-12.872699 115.3866546 -11.78032155 117.44324754 -10.6875 119.5 C-9.94021249 120.92329122 -9.19379627 122.34704024 -8.44824219 123.77124023 C-6.97343686 126.58464352 -5.49313687 129.39503132 -4.00732422 132.20263672 C-2.36978709 135.29718678 -0.7448735 138.39802317 0.87109375 141.50390625 C2.80849445 145.22337556 4.76560144 148.93170952 6.73876953 152.63232422 C7.65157565 154.34591185 8.56097355 156.06131644 9.46826172 157.77783203 C11.0322118 160.73185111 12.6085048 163.67899977 14.1875 166.625 C14.6628418 167.52613525 15.13818359 168.42727051 15.62792969 169.35571289 C20.10553764 177.64886703 25.12289544 185.00446207 32.71484375 190.7109375 C34 192 34 192 34 195 C14.53 195 -4.94 195 -25 195 C-24 191 -24 191 -22 189 C-19.37242715 180.17264052 -25.2086348 170.99265308 -29.078125 163.26953125 C-29.56778748 162.27604172 -30.05744995 161.28255219 -30.56195068 160.25895691 C-32.1173882 157.10649288 -33.68322903 153.95934427 -35.25 150.8125 C-36.80033004 147.68248313 -38.34842327 144.55137439 -39.89520264 141.41960144 C-40.85332498 139.48142837 -41.81376578 137.54439864 -42.77716064 135.60884094 C-46.65116713 127.80030475 -50.33724746 119.9091374 -54 112 C-54.11633316 120.69327866 -54.2049359 129.3862855 -54.25906086 138.0801754 C-54.2850507 142.11802221 -54.32025105 146.1553328 -54.37719727 150.19287109 C-54.43190084 154.09625064 -54.46150017 157.99911754 -54.47438622 161.9028511 C-54.48355799 163.38510829 -54.50146717 164.86734039 -54.52865028 166.34937668 C-54.68198132 175.06307864 -54.43523694 182.75515708 -49 190 C-48.01 190.66 -47.02 191.32 -46 192 C-46 192.99 -46 193.98 -46 195 C-63.82 195 -81.64 195 -100 195 C-100 193.68 -100 192.36 -100 191 C-98.66666667 189.66666667 -97.33333333 188.33333333 -96 187 C-91.37558646 178.09372207 -91.85104674 168.80117395 -91.85473633 159.01318359 C-91.85137772 157.72752502 -91.8480191 156.44186646 -91.84455872 155.11724854 C-91.83577001 151.60862487 -91.8333827 148.10002565 -91.83274293 144.59139204 C-91.83202922 142.39216964 -91.82988878 140.19295333 -91.82724571 137.99373245 C-91.81800743 130.30066793 -91.8139087 122.60762067 -91.81469727 114.91455078 C-91.81529682 107.77781095 -91.80476522 100.64114701 -91.7889536 93.50442636 C-91.77581193 87.35037809 -91.77051617 81.19635441 -91.77115268 75.04229224 C-91.77140583 71.37881841 -91.76865688 67.71541203 -91.75797462 64.05195236 C-91.74635546 59.95564472 -91.7510807 55.85950338 -91.75708008 51.76318359 C-91.74865082 49.97803848 -91.74865082 49.97803848 -91.74005127 48.15682983 C-91.3653495 31.99532245 -91.3653495 31.99532245 -98 18 C-98.66 17.67 -99.32 17.34 -100 17 C-99.81762695 14.66772461 -99.81762695 14.66772461 -99 12 C-96.81713867 10.51782227 -96.81713867 10.51782227 -93.91796875 9.31640625 C-92.85046387 8.86652344 -91.78295898 8.41664062 -90.68310547 7.953125 C-89.52955566 7.49421875 -88.37600586 7.0353125 -87.1875 6.5625 C-86.01074707 6.08167969 -84.83399414 5.60085937 -83.62158203 5.10546875 C-58.10465466 -5.13312485 -25.28101719 -16.56342506 0 0 Z M-55 28 C-55.09409479 30.02494231 -55.11743122 32.0531987 -55.11352539 34.08032227 C-55.11344986 35.38159561 -55.11337433 36.68286896 -55.11329651 38.02357483 C-55.10818909 39.45451902 -55.10297308 40.88546282 -55.09765625 42.31640625 C-55.09579203 43.7722926 -55.09436815 45.22817957 -55.09336853 46.68406677 C-55.08954365 50.52279379 -55.07971364 54.36148319 -55.06866455 58.20019531 C-55.05844978 62.11457816 -55.05387077 66.02896706 -55.04882812 69.94335938 C-55.03809134 77.62892343 -55.02101529 85.31445645 -55 93 C-53.89050707 92.05425889 -52.78176754 91.10763389 -51.67333984 90.16064453 C-51.05582855 89.63358917 -50.43831726 89.10653381 -49.80209351 88.56350708 C-35.78417669 76.4014788 -22.25319797 61.12420318 -20.0625 42.046875 C-19.9495935 36.54268302 -20.94845431 32.3326469 -24.625 28.15234375 C-28.99393081 24.1694607 -32.73031422 22.65067562 -38.72265625 22.703125 C-43.42860483 23.31659343 -51.56837002 24.56837002 -55 28 Z " fill="#FFFFFF" transform="translate(320,86)"/>
<path d="M0 0 C9.65810419 -0.43679868 19.08356887 0.27172852 28.6875 1.3125 C29.81454346 1.43020752 30.94158691 1.54791504 32.1027832 1.66918945 C39.59072858 2.52303483 46.73784831 3.99027042 54 6 C53.39693563 9.21182595 53.03485394 9.96603975 50.5625 12.375 C46.24896385 16.79374434 45.75052408 21.40062861 45.73930359 27.40696716 C45.72867638 29.30997086 45.72867638 29.30997086 45.71783447 31.25141907 C45.72012796 32.64474523 45.72263761 34.03807106 45.7253418 35.43139648 C45.7209914 36.9085923 45.71580716 38.38578585 45.70985413 39.86297607 C45.69648855 43.86505479 45.69588269 47.86703894 45.69841743 51.86913562 C45.69948873 55.21403639 45.69459973 58.55891816 45.689812 61.90381485 C45.67872541 69.79664956 45.67827474 77.68943667 45.68432617 85.58227539 C45.69036699 93.71662194 45.67805031 101.85079556 45.6567561 109.98511261 C45.63912705 116.97722837 45.63314077 123.96928915 45.63639385 130.96142632 C45.63820466 135.13389768 45.63559065 139.30624565 45.62167931 143.47869682 C45.6090842 147.40301848 45.61106083 151.32707093 45.62409019 155.25138855 C45.62645182 156.68846796 45.62373613 158.12556642 45.61546707 159.56262398 C45.42435213 171.454158 45.42435213 171.454158 51.1875 181.4375 C54.84630808 183.47017116 57.96150729 183.91676156 62 183 C65.30254793 181.22896331 67.48903233 178.92460816 69.3125 175.625 C71.30084477 168.03313815 71.14205054 160.51443608 71.12939453 152.71191406 C71.1307513 151.36914014 71.13253278 150.0263666 71.13470459 148.68359375 C71.13924792 145.05114478 71.13750167 141.41872435 71.1343255 137.78627491 C71.13178377 133.97175332 71.13414468 130.15723409 71.13571167 126.3427124 C71.13752896 119.93387415 71.13513952 113.52504744 71.13037109 107.11621094 C71.12493862 99.73008618 71.12668552 92.34398908 71.1321975 84.957865 C71.1367523 78.59751725 71.13736735 72.23717777 71.13475883 65.87682891 C71.13320785 62.08658506 71.13296955 58.29635414 71.13629532 54.50611115 C71.1392082 50.93723779 71.13713628 47.36839963 71.13140106 43.79953003 C71.12947188 41.88252815 71.13239881 39.96552325 71.13552856 38.04852295 C71.40951129 24.01103434 71.40951129 24.01103434 67 11 C67 9.68 67 8.36 67 7 C83.18395522 9.72119601 100.35538693 13.31834239 115 21 C114.41800054 24.37559685 113.37247717 25.62752283 111 28 C109.26242897 31.62139681 108.74733897 34.51324217 108.73498535 38.51156616 C108.72671219 39.60743042 108.71843903 40.70329468 108.70991516 41.83236694 C108.71089706 43.02512238 108.71187897 44.21787781 108.71289062 45.44677734 C108.70240068 47.38741027 108.6919103 49.3280432 108.68140411 51.26867604 C108.67204382 53.35113567 108.66756596 55.43355528 108.66447449 57.51603317 C108.6577355 61.8724663 108.63594611 66.22874607 108.61193848 70.58511353 C108.56300514 79.84837291 108.53073306 89.11166512 108.5 98.375 C108.46683799 108.34327522 108.43056766 118.31149032 108.37586927 128.27967417 C108.35650384 131.89346394 108.34116743 135.50717438 108.33552551 139.12101364 C108.25642854 187.88920704 108.25642854 187.88920704 93.12109375 204 C81.57107455 214.82668467 68.22311737 216.62371348 53.02734375 216.30859375 C39.85791128 215.7103217 29.2354794 210.79855108 20.1875 201.1875 C10.29572067 189.06134228 8.54550852 175.04051238 8.59936523 159.85913086 C8.59360864 158.37768504 8.58652015 156.89624391 8.57821655 155.41481018 C8.56321273 152.24905488 8.55731966 149.08346703 8.55874443 145.91767693 C8.56079463 140.90226419 8.54110204 135.88707339 8.51856995 130.87171936 C8.47775728 121.13042523 8.45902975 111.38914925 8.44239807 101.647789 C8.41998381 89.2451266 8.38631023 76.84251643 8.33519894 64.4399386 C8.31539133 59.4636995 8.30570502 54.4875779 8.30424678 49.51130092 C8.30147884 46.40673135 8.29061096 43.30222583 8.27773666 40.19768333 C8.27349048 38.76873626 8.27257406 37.33977439 8.27541161 35.91082382 C8.3659956 19.6138261 8.3659956 19.6138261 2 5 C1.34 4.67 0.68 4.34 0 4 C0 2.68 0 1.36 0 0 Z " fill="#FFFFFF" transform="translate(347,68)"/>
<path d="M0 0 C0.75698455 0.00018436 1.51396909 0.00036873 2.29389256 0.00055867 C3.09230099 -0.00311801 3.89070941 -0.0067947 4.71331203 -0.0105828 C7.40950534 -0.0216644 10.10566018 -0.02547102 12.80187291 -0.02927226 C14.72654153 -0.03553351 16.65120893 -0.04218001 18.57587498 -0.04918498 C23.81971454 -0.06662582 29.06354496 -0.07715502 34.30740637 -0.08539051 C37.5804169 -0.09053387 40.85342456 -0.09660988 44.12643307 -0.10290164 C54.3577167 -0.12196186 64.58899307 -0.13619151 74.82029104 -0.14451361 C86.64774149 -0.15429165 98.47500506 -0.18062255 110.30238962 -0.2210145 C119.43275931 -0.25113044 128.56307531 -0.26597816 137.69349372 -0.26929462 C143.15204024 -0.27165021 148.61038731 -0.2806765 154.06888074 -0.30575579 C159.20295694 -0.32896264 164.33670135 -0.33329961 169.47081631 -0.32299441 C171.3574528 -0.32249714 173.24410521 -0.32887354 175.13069218 -0.34255046 C177.70234018 -0.3601537 180.27278244 -0.353221 182.84442967 -0.3400175 C183.59472205 -0.35098674 184.34501443 -0.36195599 185.11804295 -0.37325764 C188.58710557 -0.33012193 190.4064621 -0.13287661 193.16228074 2.0566929 C194.69196116 4.05913842 196.19893838 6.04220773 197.60729283 8.13210469 C198.12525426 8.89547139 198.64321568 9.65883809 199.17687291 10.44533712 C199.99127843 11.65927144 199.99127843 11.65927144 200.82213658 12.89772969 C201.97295994 14.5970963 203.12400576 16.29631228 204.27526158 17.99538594 C204.85340611 18.85148458 205.43155064 19.70758321 206.02721471 20.58962423 C208.68829576 24.51899392 211.37958296 28.42738957 214.07213658 32.33522969 C214.9849581 33.66201057 215.89772476 34.9888292 216.81041783 36.31569844 C217.77528111 37.71755391 217.77528111 37.71755391 218.75963658 39.14772969 C218.42963658 39.80772969 218.09963658 40.46772969 217.75963658 41.14772969 C211.26217748 40.30481608 204.89807227 38.98096591 198.49401158 37.60866719 C187.56644041 35.3489534 176.69422738 34.9795123 165.56041783 34.83132344 C164.24421956 34.81054235 162.92802129 34.78976125 161.57193822 34.76835042 C158.11154132 34.71376113 154.65109164 34.66407981 151.19060582 34.61550313 C147.64390814 34.56481997 144.09728493 34.50938101 140.55065221 34.45437032 C133.62037847 34.34756398 126.69003713 34.24595464 119.75963658 34.14772969 C119.79688395 59.03556139 119.85686314 83.92324979 119.94353932 108.81096059 C119.9832652 120.36804339 120.01569041 131.92505874 120.03063267 143.48220235 C120.04368269 153.56119694 120.07073254 163.64004269 120.11424965 173.71895343 C120.13678925 179.05042457 120.15255178 184.38171266 120.15152043 189.71323568 C120.15076937 194.74316919 120.16889778 199.77269921 120.20080441 204.8025282 C120.20924354 206.63732924 120.21109464 208.47217586 120.20543927 210.30698758 C120.16433154 225.7090196 122.00918282 239.24740751 129.68541783 252.88991719 C130.03991002 253.63499532 130.39440221 254.38007344 130.75963658 255.14772969 C130.42963658 255.80772969 130.09963658 256.46772969 129.75963658 257.14772969 C123.70025198 255.67197635 119.39882033 252.27202068 114.50963658 248.58522969 C113.66425328 247.95479757 112.81886998 247.32436544 111.947869 246.6748293 C105.90216856 242.121492 100.26056802 237.34652664 94.75963658 232.14772969 C93.36897036 230.93345312 91.97330695 229.72487018 90.57213658 228.52272969 C85.23788317 223.85258012 80.31134915 218.9667582 75.75963658 213.52272969 C75.16151158 212.80858907 74.56338658 212.09444844 73.94713658 211.35866719 C72.75963658 209.14772969 72.75963658 209.14772969 73.07213658 206.37429219 C73.29901158 205.63952657 73.52588658 204.90476094 73.75963658 204.14772969 C74.74963658 203.81772969 75.73963658 203.48772969 76.75963658 203.14772969 C82.12814169 192.20423851 80.91455532 178.12210217 80.96495885 166.29128438 C80.97456329 164.84125425 80.98457476 163.39122676 80.99495763 161.94120198 C81.02173519 158.04329371 81.04288975 154.14537366 81.06295961 150.24742585 C81.08498889 146.15950544 81.11229383 142.07162017 81.13901585 137.98372823 C81.18871568 130.25992472 81.23373771 122.53610148 81.27703822 114.81225973 C81.32660605 106.01164199 81.38145101 97.21105954 81.43671781 88.41047603 C81.55018873 70.32292676 81.65710225 52.2353441 81.75963658 34.14772969 C73.03148793 34.20911167 64.30366163 34.28633967 55.57583684 34.38344461 C51.52254056 34.42805082 47.46934254 34.46732795 43.41588658 34.49416524 C39.49939585 34.52029615 35.5832852 34.56076641 31.66703099 34.61091596 C30.17766892 34.62751886 28.6882412 34.63907391 27.19879979 34.6453436 C14.05982889 34.55146116 14.05982889 34.55146116 2.82213658 40.71022969 C0.75690103 42.95624115 0.75690103 42.95624115 -0.24036342 45.14772969 C-1.56036342 45.14772969 -2.88036342 45.14772969 -4.24036342 45.14772969 C-5.90115403 34.63433199 -6.43348839 24.29369368 -6.42786342 13.64772969 C-6.42850795 12.43625264 -6.42915248 11.22477559 -6.42981654 9.97658712 C-6.36745271 0.04160394 -6.36745271 0.04160394 0 0 Z " fill="#FFFFFF" transform="translate(18.24036341905594,370.8522703051567)"/>
<path d="M0 0 C10.05851072 -0.04659996 20.11699522 -0.08200846 30.17559242 -0.10362434 C34.84756951 -0.11400546 39.51947205 -0.1280594 44.19140625 -0.15087891 C48.71072484 -0.17281166 53.2299723 -0.18461112 57.74934006 -0.18975449 C59.46267184 -0.19341394 61.17600029 -0.20055839 62.8893013 -0.21146011 C85.20917537 -0.34766933 109.10244389 2.1599938 126.22265625 18.08984375 C136.54575174 29.18433538 140.46777994 42.71854206 140 57.6875 C137.55737891 82.92791789 121.96892284 103.26435525 105 121 C104.12472656 121.928125 103.24945312 122.85625 102.34765625 123.8125 C95.42912738 130.9646943 87.96737833 137.06458506 80 143 C79.4234668 143.43199707 78.84693359 143.86399414 78.25292969 144.30908203 C58.48259685 159.03915215 24.93598764 184 0 184 C0.61336248 181.13553397 1.5182406 178.86716692 2.9375 176.3125 C9.08853776 164.16642905 8.1506906 149.31507702 8.14526367 136.03466797 C8.14862228 134.82294922 8.1519809 133.61123047 8.15544128 132.36279297 C8.16322964 129.08605123 8.16661367 125.80934784 8.16725707 122.53259802 C8.16797425 120.47641201 8.17012086 118.4202324 8.17275429 116.364048 C8.18196049 109.1660343 8.18609459 101.96803893 8.18530273 94.77001953 C8.18470117 88.09776718 8.1952807 81.42559545 8.2110464 74.75336349 C8.22417568 68.98818172 8.22948448 63.22302618 8.22884732 57.45782959 C8.2285942 54.03036843 8.23134277 50.60297934 8.24202538 47.17553329 C8.25187881 43.35246906 8.24892673 39.52961088 8.24291992 35.70654297 C8.25134918 34.0369603 8.25134918 34.0369603 8.25994873 32.33364868 C8.33123925 17.68001549 8.33123925 17.68001549 2 5 C1.34 4.67 0.68 4.34 0 4 C0 2.68 0 1.36 0 0 Z M46 31 C46 61.69 46 92.38 46 124 C67.59062107 115.36375157 87.13903455 94.95070104 96.375 74 C99.53836008 65.31488193 101.4751764 55.83124723 98 47 C93.7492562 39.10576152 87.31420043 34.82682815 79 32 C68.14468619 30.19078103 57.00504935 31 46 31 Z " fill="#FFFFFF" transform="translate(455,426)"/>
<path d="M0 0 C1.26108078 0.0001133 1.26108078 0.0001133 2.54763794 0.00022888 C3.91020218 0.00797081 3.91020218 0.00797081 5.30029297 0.01586914 C6.22969696 0.01728409 7.15910095 0.01869904 8.1166687 0.02015686 C11.09197171 0.02576486 14.06720011 0.03831871 17.04248047 0.05102539 C19.0568023 0.05603936 21.07112531 0.06060245 23.08544922 0.06469727 C28.02948849 0.07573689 32.97347182 0.0930069 37.91748047 0.11352539 C37.91748047 3.11352539 37.91748047 3.11352539 35.47998047 5.67602539 C34.63435547 6.48040039 33.78873047 7.28477539 32.91748047 8.11352539 C28.98240313 15.98368007 31.93953333 28.1626797 34.56738281 36.15185547 C36.82949286 42.45633905 39.93956386 48.29140647 43.24560547 54.10180664 C44.91748047 57.11352539 44.91748047 57.11352539 45.91748047 60.11352539 C46.57748047 60.11352539 47.23748047 60.11352539 47.91748047 60.11352539 C48.17658203 59.44579102 48.43568359 58.77805664 48.70263672 58.09008789 C49.8786981 55.20854843 51.14613875 52.37791997 52.43066406 49.54345703 C58.71721495 35.56725555 61.20344622 23.14776638 60.79321289 7.87670898 C60.76137266 5.95546508 60.83202567 4.03313197 60.91748047 2.11352539 C62.91748047 0.11352539 62.91748047 0.11352539 64.75247192 -0.12698364 C65.49415619 -0.12254242 66.23584045 -0.1181012 67 -0.11352539 C68.26108078 -0.1132988 68.26108078 -0.1132988 69.54763794 -0.11306763 C70.91020218 -0.09758377 70.91020218 -0.09758377 72.30029297 -0.08178711 C73.69439896 -0.07754227 73.69439896 -0.07754227 75.1166687 -0.07321167 C78.09206897 -0.0619953 81.06717082 -0.03688821 84.04248047 -0.01147461 C86.05679905 -0.00144669 88.07112233 0.00767949 90.08544922 0.01586914 C95.02957503 0.03794878 99.97347712 0.07248846 104.91748047 0.11352539 C104.31190636 3.07719239 103.74061955 4.35636903 101.88623047 6.90258789 C97.25515301 14.45565469 99.54941641 25.64483071 101.41748047 33.92602539 C104.55355963 45.85773343 109.61824082 57.5257409 115.91748047 68.11352539 C124.59955072 52.3359561 135.09182449 29.97373209 131.29248047 11.42602539 C129.90420131 8.08153468 128.25879168 5.84505514 125.91748047 3.11352539 C125.91748047 2.12352539 125.91748047 1.13352539 125.91748047 0.11352539 C131.43505525 0.0888493 136.95259808 0.07067683 142.47021484 0.05859375 C144.34815022 0.05355776 146.22608167 0.04672868 148.10400391 0.03808594 C150.79965179 0.02598826 153.49524794 0.02028982 156.19091797 0.01586914 C157.03367279 0.01070786 157.87642761 0.00554657 158.74472046 0.00022888 C164.68973706 -0.00034632 164.68973706 -0.00034632 166.91748047 1.11352539 C168.46263946 7.29416135 167.49126053 12.90806969 166.41748047 19.11352539 C166.23660889 20.16515869 166.0557373 21.21679199 165.86938477 22.30029297 C159.71560763 56.04153107 145.29197212 89.51386522 120.91748047 114.11352539 C117.91748047 116.11352539 117.91748047 116.11352539 115.66748047 116.11352539 C100.87891731 110.73586606 90.79033887 89.5464021 84.47998047 76.05102539 C82.50787872 71.78279247 80.61842709 67.49837775 78.91748047 63.11352539 C78.32322266 64.25047852 77.72896484 65.38743164 77.11669922 66.55883789 C69.58815823 80.69060715 60.54431754 96.02896734 46.91748047 105.11352539 C39.80690991 104.68503824 35.01835792 98.59455318 30.54736328 93.57543945 C8.96869229 68.2492982 -7.35921888 34.87513031 -6.08251953 1.11352539 C-3.79620459 -0.02963208 -2.53904547 -0.00760193 0 0 Z " fill="#FFFFFF" transform="translate(226.08251953125,301.886474609375)"/>
<path d="M0 0 C7.87445101 3.2945979 13.81698742 11.60572658 19.25390625 17.984375 C20.44057762 19.35422383 21.65837991 20.69758528 22.90234375 22.015625 C33.68390069 33.49989049 45.75455458 47.40934734 52 62 C51.505 62.99 51.505 62.99 51 64 C48.66666667 64.66666667 46.33333333 65.33333333 44 66 C42.47381783 69.05236433 42.82631692 72.24514999 42.80712891 75.59570312 C42.79895142 76.37972504 42.79077393 77.16374695 42.78234863 77.9715271 C42.75747425 80.57476031 42.74096741 83.17793864 42.7265625 85.78125 C42.71857698 87.11678169 42.71857698 87.11678169 42.71043015 88.47929382 C42.68368107 93.19810119 42.66431769 97.91688203 42.64990234 102.63574219 C42.63659797 106.53116521 42.60881317 110.42606007 42.56787109 114.32128906 C42.51836884 119.03099532 42.49375878 123.74022477 42.48667526 128.45018005 C42.47998873 130.23942769 42.46483484 132.02866579 42.44078445 133.81776428 C42.06597673 147.71981964 42.06597673 147.71981964 48 160 C49.485 160.99 49.485 160.99 51 162 C51 162.99 51 163.98 51 165 C34.5 165 18 165 1 165 C1.94007202 160.29963991 2.33816917 159.4479674 5 156 C7.80335579 147.87341805 7.56897502 138.47682463 8 130 C-0.58 130 -9.16 130 -18 130 C-17.896875 133.67125 -17.79375 137.3425 -17.6875 141.125 C-17.66260498 142.2711377 -17.63770996 143.41727539 -17.61206055 144.59814453 C-17.38546756 150.88651351 -16.98794105 156.01205895 -12.3125 160.6875 C-11.879375 161.120625 -11.44625 161.55375 -11 162 C-11 162.99 -11 163.98 -11 165 C-27.5 165 -44 165 -61 165 C-61 163.68 -61 162.36 -61 161 C-59.66666667 159.66666667 -58.33333333 158.33333333 -57 157 C-52.95516519 149.20994778 -52.84946904 141.32770746 -52.87060547 132.76098633 C-52.86885315 131.87361786 -52.86710083 130.98624939 -52.86529541 130.07199097 C-52.86091963 127.15865074 -52.86380106 124.24537202 -52.8671875 121.33203125 C-52.86651294 119.28952523 -52.86554164 117.24701929 -52.86428833 115.20451355 C-52.86281688 110.9285709 -52.86494703 106.65264919 -52.86962891 102.37670898 C-52.87530772 96.92788671 -52.87205539 91.4791139 -52.86605644 86.03029346 C-52.8624204 81.81179948 -52.86360363 77.59331697 -52.86618423 73.37482262 C-52.86684605 71.36761151 -52.86605148 69.36039932 -52.86370468 67.35318947 C-52.18267173 48.09116061 -52.18267173 48.09116061 -56.0625 29.5 C-57.49503937 25.78865245 -58.22411977 22.9907779 -58 19 C-40.13575587 27.00384148 -21.58184494 48.60295908 -10 64 C-11.3899131 66.77982621 -13.18658353 66.87463341 -16 68 C-17.4764236 70.9528472 -17.22272939 73.68448983 -17.31640625 76.9765625 C-17.33718735 77.66181 -17.35796844 78.3470575 -17.37937927 79.05307007 C-17.44480185 81.24361069 -17.50372554 83.43427189 -17.5625 85.625 C-17.60569218 87.1093875 -17.6493067 88.59376278 -17.69335938 90.078125 C-17.80127138 93.71862818 -17.90039781 97.35922195 -18 101 C-9.42 101 -0.84 101 8 101 C7.91078399 93.38142194 7.81969201 85.76318763 7.71270752 78.14488983 C7.66332936 74.59508366 7.61685803 71.04530096 7.578125 67.49536133 C7.43134209 48.2576048 7.43134209 48.2576048 6.125 29.07421875 C6.05415192 28.36408127 5.98330383 27.65394379 5.91030884 26.92228699 C5.2228742 21.11754246 3.63062337 15.65925024 1.68026733 10.16950989 C0.42751049 6.64257709 -0.27096153 3.75067806 0 0 Z " fill="#FFFFFF" transform="translate(595,116)"/>
<path d="M0 0 C30.69 0 61.38 0 93 0 C93 10.89 93 21.78 93 33 C88 32 88 32 86.1875 30.5625 C80.86396772 26.75997695 73.89265481 26.68689256 67.5625 26.5859375 C66.79695801 26.56657135 66.03141602 26.5472052 65.24267578 26.5272522 C62.82855925 26.46809054 60.41439335 26.42132856 58 26.375 C56.35024111 26.33676163 54.70050093 26.29770661 53.05078125 26.2578125 C49.0340085 26.16244249 45.01714255 26.07818173 41 26 C41 30.29 41 34.58 41 39 C44.83437328 38.91258111 48.66655038 38.80562374 52.5 38.6875 C54.11648438 38.65366211 54.11648438 38.65366211 55.765625 38.61914062 C62.21319829 38.40291103 67.07825605 37.53303956 73 35 C73.99 35 74.98 35 76 35 C76 45.23 76 55.46 76 66 C71 65 71 65 67.93359375 63.9765625 C62.75977468 62.4646685 57.41490814 62.53447585 52.0625 62.375 C50.99708984 62.33632813 49.93167969 62.29765625 48.83398438 62.2578125 C46.2229222 62.16414211 43.61148565 62.08100935 41 62 C41 66.95 41 71.9 41 77 C46.40815732 76.9307921 51.81556577 76.84266686 57.22314453 76.73754883 C59.05997358 76.70444262 60.89690086 76.67636683 62.73388672 76.65356445 C65.38551411 76.61975369 68.03625283 76.56742707 70.6875 76.51171875 C71.49928711 76.50532883 72.31107422 76.4989389 73.14746094 76.49235535 C78.70821189 76.35127656 82.92649629 75.32959295 88 73 C88.73029419 72.20628242 88.73029419 72.20628242 89.4753418 71.39653015 C91 70 91 70 95 70 C95 80.89 95 91.78 95 103 C63.65 103 32.3 103 0 103 C0 101.68 0 100.36 0 99 C1.33333333 97.66666667 2.66666667 96.33333333 4 95 C8.60058342 86.13961711 8.15871189 76.87757477 8.16796875 67.13671875 C8.17129715 65.90895218 8.17462555 64.68118561 8.17805481 63.41621399 C8.18310188 60.82671481 8.18546382 58.23720917 8.18530273 55.64770508 C8.18748697 51.71098991 8.20566062 47.77455622 8.22460938 43.83789062 C8.2275443 41.31250095 8.22952843 38.78710996 8.23046875 36.26171875 C8.23765427 35.09678391 8.24483978 33.93184906 8.25224304 32.73161316 C8.22220921 21.85164905 8.01800372 12.01800372 0 4 C0 2.68 0 1.36 0 0 Z " fill="#FFFFFF" transform="translate(401,302)"/>
<path d="M0 0 C17.16 0 34.32 0 52 0 C51.01506581 3.93973675 49.99311462 5.38032801 47.25390625 8.2421875 C44.26845199 12.42740375 43.74572143 17.08230196 43.68115234 22.09716797 C43.66128265 23.27793915 43.64141296 24.45871033 43.62094116 25.67526245 C43.60361435 27.56464035 43.60361435 27.56464035 43.5859375 29.4921875 C43.56657135 30.79326447 43.5472052 32.09434143 43.5272522 33.43484497 C43.47612061 36.87720764 43.43639412 40.31960922 43.39910889 43.762146 C43.35894952 47.28163121 43.3079119 50.80095723 43.2578125 54.3203125 C43.16127833 61.21342509 43.07680224 68.10664008 43 75 C47.67800001 74.95551701 52.35469225 74.88534653 57.03198242 74.79248047 C58.61944101 74.76444659 60.20703462 74.74314552 61.79467773 74.72900391 C74.50410662 74.84470293 74.50410662 74.84470293 86 70 C87.76323505 67.87396815 87.76323505 67.87396815 89 66 C90.32 66 91.64 66 93 66 C92.5937771 70.30527485 92.18474912 74.6102715 91.77319336 78.91503906 C91.63376214 80.37753197 91.49507892 81.8400964 91.35717773 83.30273438 C91.15808665 85.41295609 90.95624907 87.5229004 90.75390625 89.6328125 C90.63345947 90.90012207 90.5130127 92.16743164 90.38891602 93.47314453 C90.03716214 96.66299799 89.52758747 99.83447519 89 103 C59.63 103 30.26 103 0 103 C0 101.68 0 100.36 0 99 C1.33333333 97.66666667 2.66666667 96.33333333 4 95 C8.60058342 86.13961711 8.15871189 76.87757477 8.16796875 67.13671875 C8.17129715 65.90895218 8.17462555 64.68118561 8.17805481 63.41621399 C8.18310188 60.82671481 8.18546382 58.23720917 8.18530273 55.64770508 C8.18748697 51.71098991 8.20566062 47.77455622 8.22460938 43.83789062 C8.2275443 41.31250095 8.22952843 38.78710996 8.23046875 36.26171875 C8.23765427 35.09678391 8.24483978 33.93184906 8.25224304 32.73161316 C8.22220921 21.85164905 8.01800372 12.01800372 0 4 C0 2.68 0 1.36 0 0 Z " fill="#FFFFFF" transform="translate(600,302)"/>
<path d="M0 0 C17.16 0 34.32 0 52 0 C51.01506581 3.93973675 49.99311462 5.38032801 47.25390625 8.2421875 C44.26845199 12.42740375 43.74572143 17.08230196 43.68115234 22.09716797 C43.66128265 23.27793915 43.64141296 24.45871033 43.62094116 25.67526245 C43.60361435 27.56464035 43.60361435 27.56464035 43.5859375 29.4921875 C43.56657135 30.79326447 43.5472052 32.09434143 43.5272522 33.43484497 C43.47612061 36.87720764 43.43639412 40.31960922 43.39910889 43.762146 C43.35894952 47.28163121 43.3079119 50.80095723 43.2578125 54.3203125 C43.16127833 61.21342509 43.07680224 68.10664008 43 75 C43.94798965 74.98358459 44.89597931 74.96716919 45.87269592 74.95025635 C47.13939621 74.92832214 48.4060965 74.90638794 49.71118164 74.88378906 C50.37377267 74.8719672 51.0363637 74.86014534 51.71903324 74.84796524 C54.4602667 74.79936886 57.20132189 74.75249714 59.94284058 74.72351074 C67.86907251 74.63852916 75.21798214 74.53239312 82 70 C83.76323505 67.87396815 83.76323505 67.87396815 85 66 C86.32 66 87.64 66 89 66 C89 78.21 89 90.42 89 103 C59.63 103 30.26 103 0 103 C0 101.68 0 100.36 0 99 C1.33333333 97.66666667 2.66666667 96.33333333 4 95 C8.60058342 86.13961711 8.15871189 76.87757477 8.16796875 67.13671875 C8.17129715 65.90895218 8.17462555 64.68118561 8.17805481 63.41621399 C8.18310188 60.82671481 8.18546382 58.23720917 8.18530273 55.64770508 C8.18748697 51.71098991 8.20566062 47.77455622 8.22460938 43.83789062 C8.2275443 41.31250095 8.22952843 38.78710996 8.23046875 36.26171875 C8.23765427 35.09678391 8.24483978 33.93184906 8.25224304 32.73161316 C8.22220921 21.85164905 8.01800372 12.01800372 0 4 C0 2.68 0 1.36 0 0 Z " fill="#FFFFFF" transform="translate(505,302)"/>
</svg>
